<svg width="24" height="25" viewBox="0 0 24 25" fill="none" xmlns="http://www.w3.org/2000/svg">
<path d="M9.15722 21.6894V18.6226C9.1572 17.8426 9.79312 17.2088 10.581 17.2036H13.4671C14.2587 17.2036 14.9005 17.8389 14.9005 18.6226V21.6989C14.9003 22.3612 15.4343 22.9024 16.103 22.918H18.0271C19.9451 22.918 21.5 21.3786 21.5 19.4798V10.7558C21.4898 10.0088 21.1355 9.30732 20.538 8.851L13.9577 3.60327C12.8049 2.68954 11.1662 2.68954 10.0134 3.60327L3.46203 8.86053C2.86226 9.31499 2.50739 10.0176 2.5 10.7653V19.4798C2.5 21.3786 4.05488 22.918 5.97291 22.918H7.89696C8.58235 22.918 9.13797 22.3679 9.13797 21.6894" stroke="white" stroke-width="1.5" stroke-linecap="round" stroke-linejoin="round"/>
</svg>
