<svg width="50" height="48" viewBox="0 0 50 48" fill="none" xmlns="http://www.w3.org/2000/svg">
<path d="M22.6719 22.806V25.403L24.9181 26.7015L27.1644 25.403V22.806L24.9181 21.5075L22.6719 22.806Z" fill="url(#paint0_linear_180_121)"/>
<path d="M20.2316 19.3209C20.2316 19.3209 20.2614 19.5598 20.2614 19.9627C20.2614 20.6642 20.1793 21.8657 19.7241 23.2986C19.2689 24.7314 18.4554 26.3881 16.9853 28.015L17.0525 28.0747L17.0152 27.9926L16.9853 28.015L17.0525 28.0747V27.9851L17.0152 27.9926L17.0525 28.0747V27.9851V28.0672L17.0972 27.9926C17.0823 27.9851 17.0674 27.9851 17.0525 27.9851V28.0672L17.0972 27.9926L17.0525 28.0747L17.1346 28.0299C17.1271 28.0224 17.1122 28.0001 17.0972 27.9926L17.0525 28.0747L17.1346 28.0299L14.1047 22.8583L14.0226 22.903H14.1122C14.1122 22.8881 14.1047 22.8657 14.0972 22.8583L14.0152 22.903H14.1047H14.0226L14.0898 22.9553C14.1047 22.9404 14.1047 22.9254 14.1122 22.903H14.0301L14.0972 22.9553L14.0226 22.8956L14.0375 22.9926C14.0525 22.9926 14.0898 22.9702 14.0972 22.9553L14.0226 22.8956L14.0375 22.9926C14.836 22.8583 15.6047 22.806 16.3286 22.806C18.545 22.806 20.3808 23.3359 21.6569 23.8583C22.2987 24.1195 22.7987 24.3807 23.1346 24.5747C23.2987 24.6717 23.4256 24.7538 23.5077 24.806C23.5525 24.8359 23.5823 24.8508 23.5972 24.8657L23.6196 24.8807L24.4928 23.6717C24.4555 23.6418 23.642 23.0598 22.2241 22.4777C20.8062 21.8956 18.7763 21.3135 16.3211 21.3135C15.5226 21.3135 14.6719 21.3732 13.7913 21.5224C13.4405 21.5821 13.1346 21.7687 12.9331 22.015C12.7316 22.2612 12.6196 22.5747 12.6196 22.903C12.6196 23.1418 12.6793 23.3881 12.8137 23.612L15.836 28.7836C15.9629 29.0075 16.1569 29.1866 16.3659 29.306C16.5749 29.4254 16.8137 29.4851 17.045 29.4851C17.2316 29.4851 17.4181 29.4478 17.5972 29.3732C17.7763 29.2986 17.9405 29.1792 18.0823 29.0299C19.7092 27.2314 20.6346 25.3657 21.142 23.7612C21.6495 22.1493 21.7465 20.7911 21.7465 19.9777C21.7465 19.4702 21.7092 19.1717 21.7017 19.1418L20.2316 19.3209Z" fill="url(#paint1_linear_180_121)"/>
<path d="M11.3883 25.6269C12.6942 25.6269 13.7614 26.6866 13.7614 28C13.7614 29.306 12.7017 30.3732 11.3883 30.3732C10.0823 30.3732 9.01514 29.3135 9.01514 28C9.0226 26.6866 10.0823 25.6269 11.3883 25.6269Z" fill="url(#paint2_linear_180_121)"/>
<path d="M20.2913 28.7389C20.2913 28.7389 20.5301 28.709 20.9331 28.709C21.6346 28.709 22.8361 28.7911 24.2689 29.2463C25.7018 29.7015 27.3585 30.515 28.9854 31.9851L29.0451 31.918L28.9555 31.9553L28.9779 31.9851L29.0376 31.918L28.9481 31.9553L29.0301 31.918H28.9555L28.963 31.9553L29.0451 31.918H28.9555H29.0376L28.963 31.8732C28.9555 31.8881 28.9555 31.903 28.9555 31.918H29.0376L28.963 31.8732L29.0451 31.918L29.0003 31.8359L28.963 31.8732L29.0451 31.918L29.0003 31.8359L23.8286 34.8583L23.8734 34.9403V34.8508C23.8585 34.8508 23.8361 34.8583 23.8286 34.8657L23.8734 34.9478V34.8508V34.9329L23.9257 34.8657C23.9107 34.8508 23.8958 34.8508 23.8734 34.8433V34.9254L23.9257 34.8583L23.866 34.9329L23.963 34.918C23.963 34.903 23.9406 34.8657 23.9257 34.8583L23.866 34.9329L23.963 34.918C23.8286 34.1195 23.7764 33.3508 23.7764 32.6269C23.7764 30.4105 24.3063 28.5747 24.8286 27.2986C25.0898 26.6568 25.351 26.1568 25.5451 25.8209C25.6421 25.6568 25.7242 25.5299 25.7764 25.4478C25.8063 25.403 25.8212 25.3732 25.8361 25.3583L25.851 25.3359L25.6346 25.1866L25.8436 25.3433L25.6272 25.1941L25.8361 25.3508L24.6272 24.4777C24.5973 24.515 24.0152 25.3284 23.4331 26.7463C22.851 28.1642 22.2689 30.1941 22.2689 32.6493C22.2689 33.4478 22.3286 34.2986 22.4779 35.1792C22.5376 35.5299 22.7242 35.8359 22.9704 36.0374C23.2167 36.2389 23.5301 36.3508 23.8585 36.3508C24.0973 36.3508 24.3436 36.2911 24.5675 36.1568L29.7391 33.1344C29.963 33.0075 30.1421 32.8135 30.254 32.6045C30.3734 32.3956 30.4331 32.1568 30.4331 31.9254C30.4331 31.7389 30.3958 31.5523 30.3212 31.3732C30.2466 31.1941 30.1272 31.0299 29.9779 30.8881C28.1794 29.2612 26.3137 28.3359 24.7092 27.8284C23.0973 27.3209 21.7391 27.2239 20.9257 27.2239C20.4182 27.2239 20.1197 27.2612 20.0898 27.2687L20.2913 28.7389Z" fill="url(#paint3_linear_180_121)"/>
<path d="M26.5898 37.5821C26.5898 36.2761 27.6495 35.209 28.963 35.209C30.2689 35.209 31.3361 36.2687 31.3361 37.5821C31.3361 38.8881 30.2764 39.9553 28.963 39.9553C27.657 39.9478 26.5898 38.8881 26.5898 37.5821Z" fill="url(#paint4_linear_180_121)"/>
<path d="M29.7091 28.6791C29.7091 28.6791 29.6792 28.4403 29.6792 28.0373C29.6792 27.3358 29.7613 26.1343 30.2165 24.7015C30.6718 23.2687 31.4852 21.612 32.9554 19.9851L32.8882 19.9254L32.9255 20.0075L32.9554 19.9851L32.8882 19.9254V20.0149L32.9255 20.0075L32.8882 19.9254V20.0149V19.9328L32.8434 20.0075C32.8583 20.0149 32.8733 20.0149 32.8882 20.0149V19.9328L32.8434 20.0075L32.8882 19.9254L32.8061 19.9702L32.8434 20.0075L32.8882 19.9254L32.8061 19.9702L35.8285 25.1418L35.9106 25.097H35.821C35.821 25.112 35.8285 25.1343 35.836 25.1418L35.918 25.097H35.821H35.9031L35.836 25.0448C35.821 25.0597 35.821 25.0746 35.8136 25.097H35.8957L35.8285 25.0448L35.9031 25.1045L35.8882 25.0075C35.8733 25.0075 35.836 25.0299 35.8285 25.0448L35.9031 25.1045L35.8882 25.0075C35.0897 25.1418 34.321 25.194 33.6046 25.194C31.3882 25.194 29.5524 24.6642 28.2763 24.1418C27.6345 23.8806 27.1345 23.6194 26.7986 23.4254C26.6345 23.3284 26.5076 23.2463 26.4255 23.194C26.3807 23.1642 26.3509 23.1493 26.336 23.1343L26.3136 23.1194L25.4404 24.3284C25.4777 24.3582 26.2912 24.9403 27.7091 25.5224C29.127 26.1045 31.1568 26.6866 33.6121 26.6866C34.4106 26.6866 35.2613 26.6269 36.1419 26.4776C36.4927 26.4179 36.7986 26.2314 37.0001 25.9851C37.2016 25.7388 37.3136 25.4254 37.3136 25.097C37.3136 24.8582 37.2539 24.612 37.1195 24.3881L34.0971 19.2164C33.9703 18.9925 33.7762 18.8134 33.5673 18.7015C33.3583 18.5821 33.1195 18.5224 32.8882 18.5224C32.7016 18.5224 32.5151 18.5597 32.336 18.6343C32.1568 18.709 31.9927 18.8284 31.8509 18.9776C30.224 20.7761 29.2986 22.6418 28.7912 24.2463C28.2837 25.8582 28.1867 27.2164 28.1867 28.0299C28.1867 28.5373 28.224 28.8358 28.2315 28.8657L29.7091 28.6791Z" fill="url(#paint5_linear_180_121)"/>
<path d="M38.545 22.3806C37.239 22.3806 36.1719 21.3209 36.1719 20.0075C36.1719 18.7015 37.2316 17.6343 38.545 17.6343C39.851 17.6343 40.9181 18.694 40.9181 20.0075C40.9181 21.3134 39.8584 22.3806 38.545 22.3806Z" fill="url(#paint6_linear_180_121)"/>
<path d="M29.6492 19.2612C29.6492 19.2612 29.4104 19.2911 29.0074 19.2911C28.3059 19.2911 27.1044 19.209 25.6716 18.7538C24.2387 18.2985 22.582 17.4851 20.9552 16.015L20.8954 16.0821L20.9775 16.0448L20.9552 16.015L20.8954 16.0821H20.985L20.9775 16.0448L20.8954 16.0821L20.9701 16.1269C20.9775 16.112 20.9775 16.0971 20.9775 16.0821H20.8954L20.9701 16.1269L20.888 16.0821L20.9328 16.1642C20.9402 16.1568 20.9626 16.1418 20.9701 16.1269L20.888 16.0821L20.9328 16.1642L26.1044 13.1418L26.0596 13.0597V13.1493C26.0746 13.1493 26.0969 13.1418 26.1044 13.1344L26.0596 13.0523V13.1418V13.0597L26.0074 13.1269C26.0223 13.1418 26.0372 13.1418 26.0596 13.1493V13.0672L26.0074 13.1344L26.0671 13.0597L25.9701 13.0747C25.9701 13.0896 25.9925 13.1194 26.0074 13.1344L26.0671 13.0597L25.9701 13.0747C26.1044 13.8732 26.1566 14.6418 26.1566 15.3582C26.1566 17.5747 25.6268 19.4105 25.1044 20.6866C24.8432 21.3284 24.582 21.8284 24.388 22.1642C24.291 22.3284 24.2089 22.4553 24.1566 22.5374C24.1268 22.5821 24.1119 22.612 24.0969 22.6269L24.082 22.6493L25.291 23.5224C25.3134 23.4851 25.9029 22.6717 26.485 21.2538C27.0671 19.8359 27.6492 17.806 27.6492 15.3508C27.6492 14.5523 27.5895 13.7015 27.4402 12.8209C27.3805 12.4702 27.194 12.1642 26.9477 11.9627C26.7014 11.7612 26.388 11.6493 26.0596 11.6493C25.8208 11.6493 25.5746 11.709 25.3507 11.8433L20.179 14.8657C19.9552 14.9926 19.776 15.1866 19.6566 15.3956C19.5372 15.6045 19.4775 15.8433 19.4775 16.0747C19.4775 16.2612 19.5149 16.4478 19.5895 16.6269C19.6641 16.806 19.7835 16.9702 19.9328 17.112C21.7313 18.7388 23.5969 19.6642 25.2014 20.1717C26.8134 20.6791 28.1716 20.7762 28.985 20.7762C29.4925 20.7762 29.791 20.7388 29.8208 20.7314L29.6492 19.2612Z" fill="url(#paint7_linear_180_121)"/>
<path d="M20.9703 12.7985C22.2809 12.7985 23.3434 11.736 23.3434 10.4254C23.3434 9.11473 22.2809 8.05225 20.9703 8.05225C19.6597 8.05225 18.5972 9.11473 18.5972 10.4254C18.5972 11.736 19.6597 12.7985 20.9703 12.7985Z" fill="url(#paint8_linear_180_121)"/>
<path d="M5.27628 26.1418C4.96285 20.6866 6.88822 15.1866 10.4554 11.0523C17.9927 2.17169 31.4554 0.753783 40.7763 7.71647C55.7539 18.8732 51.6793 42.4105 33.5375 47.3359C31.4405 47.8806 29.2688 48.0896 27.1121 47.9777C29.239 47.8359 31.3509 47.4478 33.3584 46.7463C47.0076 41.9777 52.3882 25.4926 43.7539 13.806C38.8434 7.12692 30.0897 3.95528 22.0375 5.87319C12.5823 8.01498 5.75389 16.4851 5.27628 26.1418Z" fill="url(#paint9_linear_180_121)"/>
<path d="M44.6568 21.8582C44.9703 27.3135 43.0449 32.8135 39.4777 36.9478C31.9404 45.8284 18.4777 47.2463 9.15684 40.2836C-5.82077 29.1269 -1.73868 5.59704 16.4031 0.67167C18.5001 0.126894 20.6718 -0.0820609 22.8285 0.0298794C20.7016 0.17167 18.5897 0.55973 16.5822 1.26122C2.93296 6.02988 -2.44764 22.515 6.18669 34.2015C11.0971 40.8806 19.8509 44.0523 27.9031 42.1344C37.3583 39.9851 44.1792 31.515 44.6568 21.8582Z" fill="url(#paint10_linear_180_121)"/>
<defs>
<linearGradient id="paint0_linear_180_121" x1="5.38243" y1="6.16675" x2="41.2935" y2="39.1417" gradientUnits="userSpaceOnUse">
<stop stop-color="#24B3EF"/>
<stop offset="1" stop-color="#2EEB9B"/>
</linearGradient>
<linearGradient id="paint1_linear_180_121" x1="2.62481" y1="9.16991" x2="38.5358" y2="42.1448" gradientUnits="userSpaceOnUse">
<stop stop-color="#24B3EF"/>
<stop offset="1" stop-color="#2EEB9B"/>
</linearGradient>
<linearGradient id="paint2_linear_180_121" x1="-2.74412" y1="15.0169" x2="33.1669" y2="47.9918" gradientUnits="userSpaceOnUse">
<stop stop-color="#24B3EF"/>
<stop offset="1" stop-color="#2EEB9B"/>
</linearGradient>
<linearGradient id="paint3_linear_180_121" x1="1.87443" y1="9.98718" x2="37.7855" y2="42.9621" gradientUnits="userSpaceOnUse">
<stop stop-color="#24B3EF"/>
<stop offset="1" stop-color="#2EEB9B"/>
</linearGradient>
<linearGradient id="paint4_linear_180_121" x1="0.520341" y1="11.4618" x2="36.4314" y2="44.4367" gradientUnits="userSpaceOnUse">
<stop stop-color="#24B3EF"/>
<stop offset="1" stop-color="#2EEB9B"/>
</linearGradient>
<linearGradient id="paint5_linear_180_121" x1="8.28917" y1="3.00105" x2="44.2002" y2="35.976" gradientUnits="userSpaceOnUse">
<stop stop-color="#24B3EF"/>
<stop offset="1" stop-color="#2EEB9B"/>
</linearGradient>
<linearGradient id="paint6_linear_180_121" x1="13.6584" y1="-2.84612" x2="49.5694" y2="30.1288" gradientUnits="userSpaceOnUse">
<stop stop-color="#24B3EF"/>
<stop offset="1" stop-color="#2EEB9B"/>
</linearGradient>
<linearGradient id="paint7_linear_180_121" x1="9.03952" y1="2.18369" x2="44.9505" y2="35.1586" gradientUnits="userSpaceOnUse">
<stop stop-color="#24B3EF"/>
<stop offset="1" stop-color="#2EEB9B"/>
</linearGradient>
<linearGradient id="paint8_linear_180_121" x1="10.3939" y1="0.708933" x2="46.3049" y2="33.6838" gradientUnits="userSpaceOnUse">
<stop stop-color="#24B3EF"/>
<stop offset="1" stop-color="#2EEB9B"/>
</linearGradient>
<linearGradient id="paint9_linear_180_121" x1="7.69139" y1="3.65212" x2="43.6024" y2="36.627" gradientUnits="userSpaceOnUse">
<stop stop-color="#24B3EF"/>
<stop offset="1" stop-color="#2EEB9B"/>
</linearGradient>
<linearGradient id="paint10_linear_180_121" x1="3.22271" y1="8.51863" x2="39.1337" y2="41.4935" gradientUnits="userSpaceOnUse">
<stop stop-color="#24B3EF"/>
<stop offset="1" stop-color="#2EEB9B"/>
</linearGradient>
</defs>
</svg>
