<svg width="15" height="32" viewBox="0 0 15 32" fill="none" xmlns="http://www.w3.org/2000/svg">
<path d="M11.0912 31.9134C10.448 31.8145 9.90373 31.6165 9.45843 31.4186C9.06261 31.2207 8.76574 31.0723 8.76574 31.0723C8.76574 31.0723 9.01313 30.9733 9.45843 30.8249C9.85426 30.6765 10.3985 30.528 10.9923 30.3796C11.586 30.2312 12.1797 30.1322 12.724 30.1817C13.0209 30.1817 13.2682 30.2312 13.5156 30.3301C13.763 30.4291 14.0104 30.5775 14.2578 30.7754C14.1094 31.3692 13.5651 31.7155 12.9714 31.8639C12.4271 32.0618 11.7344 32.0124 11.0912 31.9134Z" fill="url(#paint0_linear_63_8010)"/>
<path d="M14.2084 29.8848C13.961 29.8353 13.7136 29.7364 13.5157 29.5385C13.0704 29.2416 12.7735 28.7468 12.5261 28.252C12.2787 27.7572 12.1797 27.213 12.1303 26.8666C12.0808 26.6687 12.0808 26.5203 12.0808 26.4213C12.0808 26.3224 12.0808 26.2234 12.0808 26.2234C12.0808 26.2234 12.2787 26.3224 12.5756 26.5203C12.8724 26.7182 13.2683 26.9656 13.6146 27.2625C14.0104 27.5593 14.3568 27.9057 14.6042 28.351C14.8516 28.7468 15 29.2416 15 29.8353C14.7031 29.8848 14.4557 29.9343 14.2084 29.8848Z" fill="url(#paint1_linear_63_8010)"/>
<path d="M6.88531 27.6583C7.47905 27.6583 8.07279 27.7078 8.61705 27.8562C9.11183 28.0046 9.55713 28.3015 9.854 28.7963C9.50766 29.2911 9.01288 29.489 8.41914 29.5385C7.8254 29.5879 7.23166 29.39 6.63792 29.1426C6.04419 28.8952 5.5494 28.4994 5.15358 28.2025C4.95567 28.0541 4.80723 27.9057 4.70827 27.8067C4.60932 27.7078 4.55984 27.6583 4.55984 27.6583C4.55984 27.6583 4.85671 27.6583 5.30201 27.6583C5.69784 27.6583 6.29158 27.6583 6.88531 27.6583Z" fill="url(#paint2_linear_63_8010)"/>
<path d="M10.8439 27.9552C10.2997 28.0046 9.80488 27.7078 9.50801 27.3119C9.16166 26.9161 9.01322 26.3719 8.91427 25.8276C8.81531 25.2833 8.86479 24.7886 8.91427 24.3927C8.96375 24.1948 8.96375 24.0464 9.01322 23.9474C9.0627 23.8485 9.0627 23.799 9.0627 23.799C9.0627 23.799 9.11218 23.8485 9.16166 23.8979C9.21114 23.9474 9.31009 24.0464 9.40905 24.1948C9.60696 24.4422 9.90383 24.7391 10.2007 25.1349C10.4976 25.5307 10.745 25.976 10.8934 26.4708C10.9924 26.8666 11.0418 27.4109 10.8439 27.9552Z" fill="url(#paint3_linear_63_8010)"/>
<path d="M3.02595 24.9865C2.97647 24.937 2.92699 24.838 2.82803 24.7886L2.72907 24.6896L2.6796 24.5906C2.58064 24.4917 2.53116 24.3433 2.43221 24.2443C2.28377 23.9969 2.13534 23.799 2.03638 23.6011C1.93743 23.4032 1.83847 23.2547 1.78899 23.1558C1.73951 23.0568 1.69003 22.9579 1.69003 22.9579C1.69003 22.9579 1.93743 23.0568 2.38273 23.1558C2.77855 23.3042 3.32281 23.4526 3.8176 23.7C3.96603 23.7495 4.06498 23.8485 4.21342 23.8979C4.36185 23.9969 4.46081 24.0464 4.60925 24.1453C4.75768 24.2443 4.85664 24.2938 5.00507 24.3927C5.10403 24.4917 5.25246 24.5412 5.35142 24.6401C5.8462 24.9865 6.14307 25.3823 6.2915 25.976C5.79672 26.3224 5.25246 26.3719 4.65872 26.2234C4.11446 26.0255 3.52073 25.5802 3.02595 24.9865Z" fill="url(#paint4_linear_63_8010)"/>
<path d="M6.48962 22.6115C6.63805 22.0673 6.83596 21.622 7.03387 21.2756C7.13283 21.0777 7.18231 20.9787 7.28127 20.8798C7.33074 20.7808 7.38022 20.7313 7.38022 20.7313C7.38022 20.7313 7.38022 20.7808 7.4297 20.8798C7.47918 20.9787 7.52866 21.1272 7.57813 21.2756C7.62761 21.424 7.72657 21.622 7.77605 21.8693C7.82552 22.0673 7.92448 22.3641 7.92448 22.5126C7.97396 22.9084 8.02344 23.3537 8.02344 23.8485C7.97396 24.3433 7.875 24.838 7.47918 25.2833C6.93492 25.1349 6.58857 24.7391 6.44013 24.2443C6.39066 24.0959 6.39066 23.9969 6.34118 23.8485C6.34118 23.7 6.34118 23.6011 6.34118 23.4526C6.34118 23.3042 6.39066 23.2053 6.39066 23.0568C6.44013 22.8589 6.44014 22.76 6.48962 22.6115Z" fill="url(#paint5_linear_63_8010)"/>
<path d="M0.453411 18.4554C0.403933 18.3069 0.403934 18.2574 0.403934 18.2574C0.403934 18.2574 0.651326 18.4059 1.04715 18.6038C1.44298 18.8017 1.88828 19.0986 2.38306 19.4449C2.87784 19.7913 3.32315 20.1376 3.62001 20.5829C3.66949 20.6819 3.76845 20.7808 3.81793 20.9293C3.86741 21.0282 3.91688 21.1766 3.96636 21.2756C4.06532 21.523 4.06532 21.7704 4.01584 22.0673C3.4221 22.2157 2.92732 22.1167 2.43254 21.8199C2.33358 21.7209 2.18515 21.6714 2.08619 21.5725C1.98724 21.4735 1.88828 21.3746 1.78932 21.2756C1.59141 21.0282 1.44297 20.7808 1.24506 20.5334C0.898714 20.0387 0.700804 19.4449 0.55237 19.0491C0.55237 18.7522 0.502889 18.5543 0.453411 18.4554Z" fill="url(#paint6_linear_63_8010)"/>
<path d="M5.40123 21.523C5.15384 21.3746 5.0054 21.1766 4.90645 20.9293C4.85697 20.8303 4.80749 20.6819 4.75802 20.5829C4.70854 20.484 4.70853 20.3355 4.70853 20.1871C4.70853 19.6428 4.85697 19.0986 5.10436 18.6038C5.35175 18.109 5.64862 17.6637 5.89601 17.3668C5.99497 17.2184 6.1434 17.1194 6.19288 17.0205C6.29184 16.9215 6.34132 16.872 6.34132 16.872C6.34132 16.872 6.34131 16.9215 6.39079 17.0205C6.39079 17.1194 6.44027 17.2679 6.48975 17.4163C6.53923 17.7627 6.58871 18.208 6.63818 18.7027C6.63818 18.9501 6.63818 19.1975 6.58871 19.4449C6.58871 19.4944 6.58871 19.5933 6.53923 19.6428C6.53923 19.6923 6.53923 19.7913 6.48975 19.8407C6.48975 19.9892 6.44027 20.0881 6.39079 20.1871C6.24236 20.7808 5.94549 21.2261 5.40123 21.523Z" fill="url(#paint7_linear_63_8010)"/>
<path d="M1.73973 14.8434C1.83869 14.9424 1.93764 15.0414 2.0366 15.1898C2.13556 15.2888 2.23451 15.4372 2.28399 15.5361C2.4819 15.7835 2.63034 15.9814 2.72929 16.2288C2.77877 16.3278 2.82825 16.4762 2.87773 16.5752C2.92721 16.6741 2.9272 16.8226 2.97668 16.971C3.02616 17.2184 2.97668 17.4658 2.87773 17.7627C2.28399 17.8121 1.78921 17.6142 1.39338 17.2184C1.29443 17.1194 1.19547 17.0205 1.09652 16.8721C0.997559 16.7731 0.948081 16.6247 0.849125 16.4762C0.70069 16.2288 0.601732 15.932 0.453298 15.6351C0.40382 15.4867 0.354344 15.3382 0.304866 15.1898C0.255388 15.0414 0.255385 14.8929 0.205907 14.7445C0.156429 14.4476 0.106952 14.2002 0.106952 14.0023C0.0574741 13.557 0.106952 13.2601 0.106952 13.2601C0.106952 13.2601 0.304864 13.4581 0.651211 13.7549C0.94808 14.0023 1.3439 14.3981 1.73973 14.8434Z" fill="url(#paint8_linear_63_8010)"/>
<path d="M3.86756 16.7236C3.81808 16.6247 3.81808 16.4762 3.81808 16.3773C3.81808 16.2288 3.81808 16.1299 3.86756 15.9814C3.91704 15.734 4.01599 15.4867 4.11495 15.2393C4.16443 15.1898 4.16443 15.1403 4.21391 15.0414C4.26338 14.9919 4.31286 14.9424 4.31286 14.8434C4.41182 14.7445 4.4613 14.5961 4.56026 14.4971C4.70869 14.2992 4.9066 14.1013 5.10451 13.9528C5.20347 13.8539 5.30243 13.8044 5.3519 13.7054C5.45086 13.656 5.50034 13.557 5.5993 13.5075C5.89616 13.2601 6.14355 13.1612 6.14355 13.1612C6.14355 13.1612 6.14356 13.3591 6.09408 13.7054C6.09408 13.8044 6.09408 13.8539 6.09408 13.9528C6.09408 14.0518 6.09408 14.1507 6.0446 14.2497C6.0446 14.4476 5.99512 14.695 5.94564 14.9424C5.89616 15.1898 5.84669 15.4372 5.74773 15.6351C5.69825 15.734 5.64877 15.8825 5.5993 15.9814C5.54982 16.0804 5.50034 16.2288 5.45086 16.3278C5.20347 16.7731 4.80765 17.1194 4.26339 17.3174C4.06547 17.2184 3.96652 16.971 3.86756 16.7236Z" fill="url(#paint9_linear_63_8010)"/>
<path d="M2.82847 11.8253C2.87794 12.0727 2.92742 12.3201 2.87794 12.5675C2.87794 12.7159 2.82847 12.8148 2.77899 12.9138C2.72951 13.0128 2.68003 13.1612 2.58107 13.2601C1.98734 13.1612 1.54203 12.8148 1.24516 12.3695C1.09673 12.1222 0.997773 11.8253 0.898816 11.5779C0.79986 11.281 0.799858 10.9842 0.75038 10.6873C0.75038 10.5388 0.75038 10.3904 0.75038 10.242C0.75038 10.0935 0.75038 9.94511 0.75038 9.79668C0.75038 9.49981 0.799861 9.25242 0.849339 9.0545C0.948295 8.6092 0.997771 8.31233 0.997771 8.31233C0.997771 8.31233 1.14621 8.55972 1.3936 8.90607C1.49255 9.10398 1.64099 9.3019 1.78942 9.54929C1.93786 9.79668 2.08629 10.0441 2.18525 10.2915C2.33368 10.5388 2.43264 10.7862 2.58107 11.0831C2.68003 11.281 2.77899 11.5284 2.82847 11.8253Z" fill="url(#paint10_linear_63_8010)"/>
<path d="M3.9662 11.7263C4.06516 11.4789 4.21359 11.281 4.41151 11.0831C4.51046 10.9841 4.60942 10.8852 4.70837 10.7862C4.80733 10.6873 4.90629 10.5883 5.00525 10.5388C5.45055 10.242 5.89585 9.99459 6.2422 9.84615C6.58855 9.7472 6.83594 9.64824 6.83594 9.64824C6.83594 9.64824 6.78646 9.84615 6.6875 10.143C6.63802 10.2915 6.58855 10.4894 6.48959 10.6873C6.44011 10.7862 6.39063 10.8852 6.34116 10.9841C6.29168 11.0831 6.2422 11.1821 6.19272 11.281C6.09376 11.4789 5.99481 11.6768 5.84637 11.9242C5.69794 12.1221 5.5495 12.3201 5.40107 12.518C5.05472 12.8643 4.60942 13.1612 4.01568 13.2107C3.91673 13.1117 3.86725 12.9633 3.86725 12.8643C3.81777 12.7654 3.81777 12.6169 3.81777 12.518C3.81777 12.2211 3.86725 11.9737 3.9662 11.7263Z" fill="url(#paint11_linear_63_8010)"/>
<path d="M3.1255 3.76034C3.1255 3.76034 3.22446 4.00773 3.3729 4.40355C3.52133 4.79938 3.66977 5.34364 3.8182 5.8879C3.86768 6.18477 3.91715 6.43216 3.96663 6.72903C4.01611 7.0259 4.01611 7.27329 4.01611 7.57016C4.01611 7.71859 4.01611 7.81755 3.96663 7.96598C3.91715 8.11442 3.91716 8.21337 3.86768 8.31233C3.8182 8.41128 3.76872 8.55972 3.66976 8.65868C3.62029 8.75763 3.52133 8.85659 3.42237 8.95554C3.1255 8.85659 2.92759 8.65868 2.72968 8.46076C2.53177 8.26285 2.43281 8.01546 2.33386 7.71859C2.28438 7.57016 2.28437 7.42172 2.2349 7.27329C2.2349 7.12485 2.18542 6.97642 2.18542 6.82798C2.18542 6.53111 2.2349 6.23425 2.28438 5.93738C2.38333 5.34364 2.58125 4.79938 2.77916 4.40355C2.87812 4.20564 2.92759 4.05721 3.02655 3.90877C3.07603 3.85929 3.1255 3.76034 3.1255 3.76034Z" fill="url(#paint12_linear_63_8010)"/>
<path d="M4.90648 7.96598C4.95596 7.86703 5.00544 7.76807 5.1044 7.66911C5.25283 7.4712 5.45074 7.32277 5.69813 7.17433C5.89605 7.0259 6.19291 6.92694 6.44031 6.82798C6.58874 6.77851 6.6877 6.72903 6.78665 6.67955C6.88561 6.63007 7.03404 6.63007 7.133 6.58059C7.38039 6.53112 7.57831 6.48164 7.77622 6.48164C7.97413 6.48164 8.12256 6.43216 8.22152 6.43216C8.32048 6.43216 8.41943 6.43216 8.41943 6.43216C8.41943 6.43216 8.36996 6.48164 8.32048 6.58059C8.271 6.67955 8.22152 6.77851 8.12256 6.92694C8.07309 6.97642 8.02361 7.07538 7.97413 7.12485C7.92465 7.17433 7.92465 7.22381 7.87517 7.22381C7.82569 7.27329 7.8257 7.32277 7.77622 7.37224C7.67726 7.52068 7.52883 7.71859 7.38039 7.9165C7.23196 8.11442 7.08352 8.26285 6.88561 8.41129C6.83613 8.46076 6.78666 8.51024 6.73718 8.51024C6.6877 8.55972 6.63822 8.6092 6.58874 8.6092C6.48979 8.65868 6.39083 8.75763 6.29187 8.80711C6.09396 8.90607 5.84657 9.00502 5.59918 9.10398C5.35179 9.15346 5.05492 9.15346 4.80753 9.10398C4.75805 8.95555 4.75805 8.85659 4.75805 8.70815C4.75805 8.55972 4.75805 8.46076 4.80753 8.36181C4.80753 8.21337 4.85701 8.06494 4.90648 7.96598Z" fill="url(#paint13_linear_63_8010)"/>
<path d="M5.30194 5.04677C4.80716 4.70043 4.60925 4.20564 4.55977 3.61191C4.55977 3.31504 4.55977 3.06765 4.65872 2.77078C4.7082 2.47391 4.80716 2.17704 4.95559 1.92965C5.05455 1.63278 5.20298 1.38539 5.35142 1.138C5.49985 0.890607 5.64829 0.692694 5.74724 0.54426C5.89568 0.346347 5.99463 0.247391 6.09359 0.148434C6.19255 0.0494781 6.24203 0 6.24203 0C6.24203 0 6.24203 0.247391 6.24203 0.643216C6.2915 0.841129 6.2915 1.08852 6.2915 1.38539C6.2915 1.53382 6.2915 1.63278 6.2915 1.78121C6.2915 1.92965 6.2915 2.07808 6.2915 2.22652C6.2915 2.82026 6.2915 3.36451 6.14307 3.8593C6.09359 4.10669 5.94516 4.35408 5.79672 4.55199C5.74724 4.7499 5.54933 4.89834 5.30194 5.04677Z" fill="url(#paint14_linear_63_8010)"/>
<path d="M7.23201 4.05721C7.62783 3.76034 8.17209 3.56243 8.71635 3.51295C8.96374 3.46347 9.26061 3.46347 9.508 3.46347C9.75539 3.46347 9.95331 3.46347 10.1512 3.51295C10.547 3.46347 10.7944 3.51295 10.7944 3.51295C10.7944 3.51295 10.745 3.56243 10.6955 3.61191C10.646 3.66138 10.547 3.76034 10.3986 3.90877C10.2997 4.00773 10.1512 4.15616 9.9533 4.3046C9.80487 4.45303 9.60696 4.60147 9.40905 4.7499C9.21113 4.89834 9.01322 5.04677 8.81531 5.14573C8.61739 5.24468 8.37 5.34364 8.12261 5.4426C7.62783 5.59103 7.13305 5.59103 6.58879 5.34364C6.58879 5.09625 6.63827 4.84886 6.73723 4.60147C6.88566 4.35408 7.03409 4.20564 7.23201 4.05721Z" fill="url(#paint15_linear_63_8010)"/>
<defs>
<linearGradient id="paint0_linear_63_8010" x1="14.2578" y1="31.0844" x2="8.76574" y2="31.0844" gradientUnits="userSpaceOnUse">
<stop stop-color="#2EEB9B"/>
<stop offset="1" stop-color="#24B3EF"/>
</linearGradient>
<linearGradient id="paint1_linear_63_8010" x1="15" y1="28.0644" x2="12.0808" y2="28.0644" gradientUnits="userSpaceOnUse">
<stop stop-color="#2EEB9B"/>
<stop offset="1" stop-color="#24B3EF"/>
</linearGradient>
<linearGradient id="paint2_linear_63_8010" x1="9.854" y1="28.6022" x2="4.55984" y2="28.6022" gradientUnits="userSpaceOnUse">
<stop stop-color="#2EEB9B"/>
<stop offset="1" stop-color="#24B3EF"/>
</linearGradient>
<linearGradient id="paint3_linear_63_8010" x1="10.98" y1="25.8798" x2="8.85714" y2="25.8798" gradientUnits="userSpaceOnUse">
<stop stop-color="#2EEB9B"/>
<stop offset="1" stop-color="#24B3EF"/>
</linearGradient>
<linearGradient id="paint4_linear_63_8010" x1="6.2915" y1="24.6301" x2="1.69003" y2="24.6301" gradientUnits="userSpaceOnUse">
<stop stop-color="#2EEB9B"/>
<stop offset="1" stop-color="#24B3EF"/>
</linearGradient>
<linearGradient id="paint5_linear_63_8010" x1="8.02344" y1="23.0073" x2="6.34118" y2="23.0073" gradientUnits="userSpaceOnUse">
<stop stop-color="#2EEB9B"/>
<stop offset="1" stop-color="#24B3EF"/>
</linearGradient>
<linearGradient id="paint6_linear_63_8010" x1="4.04834" y1="20.1964" x2="0.403934" y2="20.1964" gradientUnits="userSpaceOnUse">
<stop stop-color="#2EEB9B"/>
<stop offset="1" stop-color="#24B3EF"/>
</linearGradient>
<linearGradient id="paint7_linear_63_8010" x1="6.63818" y1="19.1975" x2="4.70853" y2="19.1975" gradientUnits="userSpaceOnUse">
<stop stop-color="#2EEB9B"/>
<stop offset="1" stop-color="#24B3EF"/>
</linearGradient>
<linearGradient id="paint8_linear_63_8010" x1="2.99609" y1="15.5151" x2="0.0849619" y2="15.5151" gradientUnits="userSpaceOnUse">
<stop stop-color="#2EEB9B"/>
<stop offset="1" stop-color="#24B3EF"/>
</linearGradient>
<linearGradient id="paint9_linear_63_8010" x1="6.14355" y1="15.2393" x2="3.81808" y2="15.2393" gradientUnits="userSpaceOnUse">
<stop stop-color="#2EEB9B"/>
<stop offset="1" stop-color="#24B3EF"/>
</linearGradient>
<linearGradient id="paint10_linear_63_8010" x1="2.89844" y1="10.7862" x2="0.75038" y2="10.7862" gradientUnits="userSpaceOnUse">
<stop stop-color="#2EEB9B"/>
<stop offset="1" stop-color="#24B3EF"/>
</linearGradient>
<linearGradient id="paint11_linear_63_8010" x1="6.83594" y1="11.4295" x2="3.81777" y2="11.4295" gradientUnits="userSpaceOnUse">
<stop stop-color="#2EEB9B"/>
<stop offset="1" stop-color="#24B3EF"/>
</linearGradient>
<linearGradient id="paint12_linear_63_8010" x1="4.01611" y1="6.35794" x2="2.18542" y2="6.35794" gradientUnits="userSpaceOnUse">
<stop stop-color="#2EEB9B"/>
<stop offset="1" stop-color="#24B3EF"/>
</linearGradient>
<linearGradient id="paint13_linear_63_8010" x1="8.41943" y1="7.78662" x2="4.75805" y2="7.78662" gradientUnits="userSpaceOnUse">
<stop stop-color="#2EEB9B"/>
<stop offset="1" stop-color="#24B3EF"/>
</linearGradient>
<linearGradient id="paint14_linear_63_8010" x1="6.2915" y1="2.52339" x2="4.55977" y2="2.52339" gradientUnits="userSpaceOnUse">
<stop stop-color="#2EEB9B"/>
<stop offset="1" stop-color="#24B3EF"/>
</linearGradient>
<linearGradient id="paint15_linear_63_8010" x1="10.7944" y1="4.50368" x2="6.58879" y2="4.50368" gradientUnits="userSpaceOnUse">
<stop stop-color="#2EEB9B"/>
<stop offset="1" stop-color="#24B3EF"/>
</linearGradient>
</defs>
</svg>
