<svg width="15" height="32" viewBox="0 0 15 32" fill="none" xmlns="http://www.w3.org/2000/svg">
<path d="M3.90879 31.9134C4.55201 31.8145 5.09627 31.6165 5.54157 31.4186C5.93739 31.2207 6.23426 31.0723 6.23426 31.0723C6.23426 31.0723 5.98687 30.9733 5.54157 30.8249C5.14574 30.6765 4.60148 30.528 4.00775 30.3796C3.41401 30.2312 2.82027 30.1322 2.27601 30.1817C1.97914 30.1817 1.73175 30.2312 1.48436 30.3301C1.23697 30.4291 0.989578 30.5775 0.742188 30.7754C0.890622 31.3692 1.43488 31.7155 2.02862 31.8639C2.57288 32.0618 3.26557 32.0124 3.90879 31.9134Z" fill="url(#paint0_linear_63_8031)"/>
<path d="M0.79165 29.8848C1.03904 29.8353 1.28643 29.7364 1.48434 29.5385C1.92965 29.2416 2.22652 28.7468 2.47391 28.252C2.7213 27.7572 2.82025 27.213 2.86973 26.8666C2.91921 26.6687 2.91921 26.5203 2.91921 26.4213C2.91921 26.3224 2.91921 26.2234 2.91921 26.2234C2.91921 26.2234 2.7213 26.3224 2.42443 26.5203C2.12756 26.7182 1.73174 26.9656 1.38539 27.2625C0.989563 27.5593 0.643216 27.9057 0.395825 28.351C0.148434 28.7468 0 29.2416 0 29.8353C0.296869 29.8848 0.544259 29.9343 0.79165 29.8848Z" fill="url(#paint1_linear_63_8031)"/>
<path d="M8.11469 27.6583C7.52095 27.6583 6.92721 27.7078 6.38295 27.8562C5.88817 28.0046 5.44287 28.3015 5.146 28.7963C5.49234 29.2911 5.98712 29.489 6.58086 29.5385C7.1746 29.5879 7.76834 29.39 8.36208 29.1426C8.95581 28.8952 9.4506 28.4994 9.84642 28.2025C10.0443 28.0541 10.1928 27.9057 10.2917 27.8067C10.3907 27.7078 10.4402 27.6583 10.4402 27.6583C10.4402 27.6583 10.1433 27.6583 9.69799 27.6583C9.30216 27.6583 8.70842 27.6583 8.11469 27.6583Z" fill="url(#paint2_linear_63_8031)"/>
<path d="M4.15609 27.9552C4.70034 28.0046 5.19512 27.7078 5.49199 27.3119C5.83834 26.9161 5.98678 26.3719 6.08573 25.8276C6.18469 25.2833 6.13521 24.7886 6.08573 24.3927C6.03625 24.1948 6.03625 24.0464 5.98678 23.9474C5.9373 23.8485 5.9373 23.799 5.9373 23.799C5.9373 23.799 5.88782 23.8485 5.83834 23.8979C5.78886 23.9474 5.68991 24.0464 5.59095 24.1948C5.39304 24.4422 5.09617 24.7391 4.7993 25.1349C4.50243 25.5307 4.25504 25.976 4.10661 26.4708C4.00765 26.8666 3.95817 27.4109 4.15609 27.9552Z" fill="url(#paint3_linear_63_8031)"/>
<path d="M11.9741 24.9865C12.0235 24.937 12.073 24.838 12.172 24.7886L12.2709 24.6896L12.3204 24.5906C12.4194 24.4917 12.4688 24.3433 12.5678 24.2443C12.7162 23.9969 12.8647 23.799 12.9636 23.6011C13.0626 23.4032 13.1615 23.2547 13.211 23.1558C13.2605 23.0568 13.31 22.9579 13.31 22.9579C13.31 22.9579 13.0626 23.0568 12.6173 23.1558C12.2214 23.3042 11.6772 23.4526 11.1824 23.7C11.034 23.7495 10.935 23.8485 10.7866 23.8979C10.6381 23.9969 10.5392 24.0464 10.3908 24.1453C10.2423 24.2443 10.1434 24.2938 9.99493 24.3927C9.89597 24.4917 9.74754 24.5412 9.64858 24.6401C9.1538 24.9865 8.85693 25.3823 8.7085 25.976C9.20328 26.3224 9.74754 26.3719 10.3413 26.2234C10.8855 26.0255 11.4793 25.5802 11.9741 24.9865Z" fill="url(#paint4_linear_63_8031)"/>
<path d="M8.51038 22.6115C8.36195 22.0673 8.16404 21.622 7.96613 21.2756C7.86717 21.0777 7.81769 20.9787 7.71873 20.8798C7.66926 20.7808 7.61978 20.7313 7.61978 20.7313C7.61978 20.7313 7.61978 20.7808 7.5703 20.8798C7.52082 20.9787 7.47134 21.1272 7.42187 21.2756C7.37239 21.424 7.27343 21.622 7.22395 21.8693C7.17448 22.0673 7.07552 22.3641 7.07552 22.5126C7.02604 22.9084 6.97656 23.3537 6.97656 23.8485C7.02604 24.3433 7.125 24.838 7.52082 25.2833C8.06508 25.1349 8.41143 24.7391 8.55987 24.2443C8.60934 24.0959 8.60934 23.9969 8.65882 23.8485C8.65882 23.7 8.65882 23.6011 8.65882 23.4526C8.65882 23.3042 8.60934 23.2053 8.60934 23.0568C8.55987 22.8589 8.55986 22.76 8.51038 22.6115Z" fill="url(#paint5_linear_63_8031)"/>
<path d="M14.5466 18.4554C14.5961 18.3069 14.5961 18.2574 14.5961 18.2574C14.5961 18.2574 14.3487 18.4059 13.9528 18.6038C13.557 18.8017 13.1117 19.0986 12.6169 19.4449C12.1222 19.7913 11.6769 20.1376 11.38 20.5829C11.3305 20.6819 11.2316 20.7808 11.1821 20.9293C11.1326 21.0282 11.0831 21.1766 11.0336 21.2756C10.9347 21.523 10.9347 21.7704 10.9842 22.0673C11.5779 22.2157 12.0727 22.1167 12.5675 21.8199C12.6664 21.7209 12.8149 21.6714 12.9138 21.5725C13.0128 21.4735 13.1117 21.3746 13.2107 21.2756C13.4086 21.0282 13.557 20.7808 13.7549 20.5334C14.1013 20.0387 14.2992 19.4449 14.4476 19.0491C14.4476 18.7522 14.4971 18.5543 14.5466 18.4554Z" fill="url(#paint6_linear_63_8031)"/>
<path d="M9.59877 21.523C9.84616 21.3746 9.9946 21.1766 10.0936 20.9293C10.143 20.8303 10.1925 20.6819 10.242 20.5829C10.2915 20.484 10.2915 20.3355 10.2915 20.1871C10.2915 19.6428 10.143 19.0986 9.89564 18.6038C9.64825 18.109 9.35138 17.6637 9.10399 17.3668C9.00503 17.2184 8.8566 17.1194 8.80712 17.0205C8.70816 16.9215 8.65868 16.872 8.65868 16.872C8.65868 16.872 8.65869 16.9215 8.60921 17.0205C8.60921 17.1194 8.55973 17.2679 8.51025 17.4163C8.46077 17.7627 8.41129 18.208 8.36182 18.7027C8.36182 18.9501 8.36182 19.1975 8.41129 19.4449C8.41129 19.4944 8.41129 19.5933 8.46077 19.6428C8.46077 19.6923 8.46077 19.7913 8.51025 19.8407C8.51025 19.9892 8.55973 20.0881 8.60921 20.1871C8.75764 20.7808 9.05451 21.2261 9.59877 21.523Z" fill="url(#paint7_linear_63_8031)"/>
<path d="M13.2603 14.8434C13.1613 14.9424 13.0624 15.0414 12.9634 15.1898C12.8644 15.2888 12.7655 15.4372 12.716 15.5361C12.5181 15.7835 12.3697 15.9814 12.2707 16.2288C12.2212 16.3278 12.1717 16.4762 12.1223 16.5752C12.0728 16.6741 12.0728 16.8226 12.0233 16.971C11.9738 17.2184 12.0233 17.4658 12.1223 17.7627C12.716 17.8121 13.2108 17.6142 13.6066 17.2184C13.7056 17.1194 13.8045 17.0205 13.9035 16.8721C14.0024 16.7731 14.0519 16.6247 14.1509 16.4762C14.2993 16.2288 14.3983 15.932 14.5467 15.6351C14.5962 15.4867 14.6457 15.3382 14.6951 15.1898C14.7446 15.0414 14.7446 14.8929 14.7941 14.7445C14.8436 14.4476 14.893 14.2002 14.893 14.0023C14.9425 13.557 14.893 13.2601 14.893 13.2601C14.893 13.2601 14.6951 13.4581 14.3488 13.7549C14.0519 14.0023 13.6561 14.3981 13.2603 14.8434Z" fill="url(#paint8_linear_63_8031)"/>
<path d="M11.1324 16.7236C11.1819 16.6247 11.1819 16.4762 11.1819 16.3773C11.1819 16.2288 11.1819 16.1299 11.1324 15.9814C11.083 15.734 10.984 15.4867 10.885 15.2393C10.8356 15.1898 10.8356 15.1403 10.7861 15.0414C10.7366 14.9919 10.6871 14.9424 10.6871 14.8434C10.5882 14.7445 10.5387 14.5961 10.4397 14.4971C10.2913 14.2992 10.0934 14.1013 9.89549 13.9528C9.79653 13.8539 9.69757 13.8044 9.6481 13.7054C9.54914 13.656 9.49966 13.557 9.4007 13.5075C9.10384 13.2601 8.85645 13.1612 8.85645 13.1612C8.85645 13.1612 8.85644 13.3591 8.90592 13.7054C8.90592 13.8044 8.90592 13.8539 8.90592 13.9528C8.90592 14.0518 8.90592 14.1507 8.9554 14.2497C8.9554 14.4476 9.00488 14.695 9.05436 14.9424C9.10384 15.1898 9.15331 15.4372 9.25227 15.6351C9.30175 15.734 9.35123 15.8825 9.4007 15.9814C9.45018 16.0804 9.49966 16.2288 9.54914 16.3278C9.79653 16.7731 10.1924 17.1194 10.7366 17.3174C10.9345 17.2184 11.0335 16.971 11.1324 16.7236Z" fill="url(#paint9_linear_63_8031)"/>
<path d="M12.1715 11.8253C12.1221 12.0727 12.0726 12.3201 12.1221 12.5675C12.1221 12.7159 12.1715 12.8148 12.221 12.9138C12.2705 13.0128 12.32 13.1612 12.4189 13.2601C13.0127 13.1612 13.458 12.8148 13.7548 12.3695C13.9033 12.1222 14.0022 11.8253 14.1012 11.5779C14.2001 11.281 14.2001 10.9842 14.2496 10.6873C14.2496 10.5388 14.2496 10.3904 14.2496 10.242C14.2496 10.0935 14.2496 9.94511 14.2496 9.79668C14.2496 9.49981 14.2001 9.25242 14.1507 9.0545C14.0517 8.6092 14.0022 8.31233 14.0022 8.31233C14.0022 8.31233 13.8538 8.55972 13.6064 8.90607C13.5074 9.10398 13.359 9.3019 13.2106 9.54929C13.0621 9.79668 12.9137 10.0441 12.8148 10.2915C12.6663 10.5388 12.5674 10.7862 12.4189 11.0831C12.32 11.281 12.221 11.5284 12.1715 11.8253Z" fill="url(#paint10_linear_63_8031)"/>
<path d="M11.0338 11.7263C10.9348 11.4789 10.7864 11.281 10.5885 11.0831C10.4895 10.9841 10.3906 10.8852 10.2916 10.7862C10.1927 10.6873 10.0937 10.5883 9.99475 10.5388C9.54945 10.242 9.10415 9.99459 8.7578 9.84615C8.41145 9.7472 8.16406 9.64824 8.16406 9.64824C8.16406 9.64824 8.21354 9.84615 8.3125 10.143C8.36198 10.2915 8.41145 10.4894 8.51041 10.6873C8.55989 10.7862 8.60937 10.8852 8.65884 10.9841C8.70832 11.0831 8.7578 11.1821 8.80728 11.281C8.90624 11.4789 9.00519 11.6768 9.15363 11.9242C9.30206 12.1221 9.4505 12.3201 9.59893 12.518C9.94528 12.8643 10.3906 13.1612 10.9843 13.2107C11.0833 13.1117 11.1328 12.9633 11.1328 12.8643C11.1822 12.7654 11.1822 12.6169 11.1822 12.518C11.1822 12.2211 11.1328 11.9737 11.0338 11.7263Z" fill="url(#paint11_linear_63_8031)"/>
<path d="M11.8745 3.76034C11.8745 3.76034 11.7755 4.00773 11.6271 4.40355C11.4787 4.79938 11.3302 5.34364 11.1818 5.8879C11.1323 6.18477 11.0828 6.43216 11.0334 6.72903C10.9839 7.0259 10.9839 7.27329 10.9839 7.57016C10.9839 7.71859 10.9839 7.81755 11.0334 7.96598C11.0828 8.11442 11.0828 8.21337 11.1323 8.31233C11.1818 8.41128 11.2313 8.55972 11.3302 8.65868C11.3797 8.75763 11.4787 8.85659 11.5776 8.95554C11.8745 8.85659 12.0724 8.65868 12.2703 8.46076C12.4682 8.26285 12.5672 8.01546 12.6661 7.71859C12.7156 7.57016 12.7156 7.42172 12.7651 7.27329C12.7651 7.12485 12.8146 6.97642 12.8146 6.82798C12.8146 6.53111 12.7651 6.23425 12.7156 5.93738C12.6167 5.34364 12.4188 4.79938 12.2208 4.40355C12.1219 4.20564 12.0724 4.05721 11.9734 3.90877C11.924 3.85929 11.8745 3.76034 11.8745 3.76034Z" fill="url(#paint12_linear_63_8031)"/>
<path d="M10.0935 7.96598C10.044 7.86703 9.99456 7.76807 9.8956 7.66911C9.74717 7.4712 9.54926 7.32277 9.30187 7.17433C9.10395 7.0259 8.80709 6.92694 8.55969 6.82798C8.41126 6.77851 8.3123 6.72903 8.21335 6.67955C8.11439 6.63007 7.96596 6.63007 7.867 6.58059C7.61961 6.53112 7.42169 6.48164 7.22378 6.48164C7.02587 6.48164 6.87744 6.43216 6.77848 6.43216C6.67952 6.43216 6.58057 6.43216 6.58057 6.43216C6.58057 6.43216 6.63004 6.48164 6.67952 6.58059C6.729 6.67955 6.77848 6.77851 6.87744 6.92694C6.92691 6.97642 6.97639 7.07538 7.02587 7.12485C7.07535 7.17433 7.07535 7.22381 7.12483 7.22381C7.17431 7.27329 7.1743 7.32277 7.22378 7.37224C7.32274 7.52068 7.47117 7.71859 7.61961 7.9165C7.76804 8.11442 7.91648 8.26285 8.11439 8.41129C8.16387 8.46076 8.21334 8.51024 8.26282 8.51024C8.3123 8.55972 8.36178 8.6092 8.41126 8.6092C8.51021 8.65868 8.60917 8.75763 8.70813 8.80711C8.90604 8.90607 9.15343 9.00502 9.40082 9.10398C9.64821 9.15346 9.94508 9.15346 10.1925 9.10398C10.2419 8.95555 10.2419 8.85659 10.2419 8.70815C10.2419 8.55972 10.2419 8.46076 10.1925 8.36181C10.1925 8.21337 10.143 8.06494 10.0935 7.96598Z" fill="url(#paint13_linear_63_8031)"/>
<path d="M9.69806 5.04677C10.1928 4.70043 10.3908 4.20564 10.4402 3.61191C10.4402 3.31504 10.4402 3.06765 10.3413 2.77078C10.2918 2.47391 10.1928 2.17704 10.0444 1.92965C9.94545 1.63278 9.79702 1.38539 9.64858 1.138C9.50015 0.890607 9.35171 0.692694 9.25276 0.54426C9.10432 0.346347 9.00537 0.247391 8.90641 0.148434C8.80745 0.0494781 8.75797 0 8.75797 0C8.75797 0 8.75797 0.247391 8.75797 0.643216C8.7085 0.841129 8.7085 1.08852 8.7085 1.38539C8.7085 1.53382 8.7085 1.63278 8.7085 1.78121C8.7085 1.92965 8.7085 2.07808 8.7085 2.22652C8.7085 2.82026 8.7085 3.36451 8.85693 3.8593C8.90641 4.10669 9.05484 4.35408 9.20328 4.55199C9.25276 4.7499 9.45067 4.89834 9.69806 5.04677Z" fill="url(#paint14_linear_63_8031)"/>
<path d="M7.76799 4.05721C7.37217 3.76034 6.82791 3.56243 6.28365 3.51295C6.03626 3.46347 5.73939 3.46347 5.492 3.46347C5.24461 3.46347 5.04669 3.46347 4.84878 3.51295C4.45296 3.46347 4.20557 3.51295 4.20557 3.51295C4.20557 3.51295 4.25504 3.56243 4.30452 3.61191C4.354 3.66138 4.45296 3.76034 4.60139 3.90877C4.70035 4.00773 4.84878 4.15616 5.0467 4.3046C5.19513 4.45303 5.39304 4.60147 5.59095 4.7499C5.78887 4.89834 5.98678 5.04677 6.18469 5.14573C6.38261 5.24468 6.63 5.34364 6.87739 5.4426C7.37217 5.59103 7.86695 5.59103 8.41121 5.34364C8.41121 5.09625 8.36173 4.84886 8.26277 4.60147C8.11434 4.35408 7.96591 4.20564 7.76799 4.05721Z" fill="url(#paint15_linear_63_8031)"/>
<defs>
<linearGradient id="paint0_linear_63_8031" x1="0.742188" y1="31.0844" x2="6.23426" y2="31.0844" gradientUnits="userSpaceOnUse">
<stop stop-color="#2EEB9B"/>
<stop offset="1" stop-color="#24B3EF"/>
</linearGradient>
<linearGradient id="paint1_linear_63_8031" x1="0" y1="28.0644" x2="2.91921" y2="28.0644" gradientUnits="userSpaceOnUse">
<stop stop-color="#2EEB9B"/>
<stop offset="1" stop-color="#24B3EF"/>
</linearGradient>
<linearGradient id="paint2_linear_63_8031" x1="5.146" y1="28.6022" x2="10.4402" y2="28.6022" gradientUnits="userSpaceOnUse">
<stop stop-color="#2EEB9B"/>
<stop offset="1" stop-color="#24B3EF"/>
</linearGradient>
<linearGradient id="paint3_linear_63_8031" x1="4.02002" y1="25.8798" x2="6.14286" y2="25.8798" gradientUnits="userSpaceOnUse">
<stop stop-color="#2EEB9B"/>
<stop offset="1" stop-color="#24B3EF"/>
</linearGradient>
<linearGradient id="paint4_linear_63_8031" x1="8.7085" y1="24.6301" x2="13.31" y2="24.6301" gradientUnits="userSpaceOnUse">
<stop stop-color="#2EEB9B"/>
<stop offset="1" stop-color="#24B3EF"/>
</linearGradient>
<linearGradient id="paint5_linear_63_8031" x1="6.97656" y1="23.0073" x2="8.65882" y2="23.0073" gradientUnits="userSpaceOnUse">
<stop stop-color="#2EEB9B"/>
<stop offset="1" stop-color="#24B3EF"/>
</linearGradient>
<linearGradient id="paint6_linear_63_8031" x1="10.9517" y1="20.1964" x2="14.5961" y2="20.1964" gradientUnits="userSpaceOnUse">
<stop stop-color="#2EEB9B"/>
<stop offset="1" stop-color="#24B3EF"/>
</linearGradient>
<linearGradient id="paint7_linear_63_8031" x1="8.36182" y1="19.1975" x2="10.2915" y2="19.1975" gradientUnits="userSpaceOnUse">
<stop stop-color="#2EEB9B"/>
<stop offset="1" stop-color="#24B3EF"/>
</linearGradient>
<linearGradient id="paint8_linear_63_8031" x1="12.0039" y1="15.5151" x2="14.915" y2="15.5151" gradientUnits="userSpaceOnUse">
<stop stop-color="#2EEB9B"/>
<stop offset="1" stop-color="#24B3EF"/>
</linearGradient>
<linearGradient id="paint9_linear_63_8031" x1="8.85645" y1="15.2393" x2="11.1819" y2="15.2393" gradientUnits="userSpaceOnUse">
<stop stop-color="#2EEB9B"/>
<stop offset="1" stop-color="#24B3EF"/>
</linearGradient>
<linearGradient id="paint10_linear_63_8031" x1="12.1016" y1="10.7862" x2="14.2496" y2="10.7862" gradientUnits="userSpaceOnUse">
<stop stop-color="#2EEB9B"/>
<stop offset="1" stop-color="#24B3EF"/>
</linearGradient>
<linearGradient id="paint11_linear_63_8031" x1="8.16406" y1="11.4295" x2="11.1822" y2="11.4295" gradientUnits="userSpaceOnUse">
<stop stop-color="#2EEB9B"/>
<stop offset="1" stop-color="#24B3EF"/>
</linearGradient>
<linearGradient id="paint12_linear_63_8031" x1="10.9839" y1="6.35794" x2="12.8146" y2="6.35794" gradientUnits="userSpaceOnUse">
<stop stop-color="#2EEB9B"/>
<stop offset="1" stop-color="#24B3EF"/>
</linearGradient>
<linearGradient id="paint13_linear_63_8031" x1="6.58057" y1="7.78662" x2="10.2419" y2="7.78662" gradientUnits="userSpaceOnUse">
<stop stop-color="#2EEB9B"/>
<stop offset="1" stop-color="#24B3EF"/>
</linearGradient>
<linearGradient id="paint14_linear_63_8031" x1="8.7085" y1="2.52339" x2="10.4402" y2="2.52339" gradientUnits="userSpaceOnUse">
<stop stop-color="#2EEB9B"/>
<stop offset="1" stop-color="#24B3EF"/>
</linearGradient>
<linearGradient id="paint15_linear_63_8031" x1="4.20557" y1="4.50368" x2="8.41121" y2="4.50368" gradientUnits="userSpaceOnUse">
<stop stop-color="#2EEB9B"/>
<stop offset="1" stop-color="#24B3EF"/>
</linearGradient>
</defs>
</svg>
