<svg width="24" height="25" viewBox="0 0 24 25" fill="none" xmlns="http://www.w3.org/2000/svg">
<path fill-rule="evenodd" clip-rule="evenodd" d="M20.8064 8.54152L20.184 7.46143C19.6574 6.54751 18.4905 6.23223 17.5753 6.75662C17.1397 7.01325 16.6198 7.08606 16.1305 6.95899C15.6411 6.83193 15.2224 6.51543 14.9666 6.07928C14.8021 5.80206 14.7137 5.4863 14.7103 5.16395C14.7251 4.64713 14.5302 4.14631 14.1698 3.77558C13.8094 3.40484 13.3143 3.19577 12.7973 3.19598H11.5433C11.0367 3.19598 10.5511 3.39782 10.1938 3.75685C9.83644 4.11588 9.63693 4.6025 9.63937 5.10903C9.62435 6.15483 8.77224 6.99472 7.72632 6.99461C7.40397 6.99126 7.08821 6.90285 6.81099 6.73832C5.89582 6.21392 4.72887 6.5292 4.20229 7.44312L3.5341 8.54152C3.00817 9.4543 3.31916 10.6205 4.22975 11.1502C4.82166 11.4919 5.18629 12.1235 5.18629 12.807C5.18629 13.4904 4.82166 14.122 4.22975 14.4637C3.32031 14.9898 3.00898 16.1532 3.5341 17.0633L4.16568 18.1525C4.4124 18.5977 4.82636 18.9262 5.31595 19.0653C5.80554 19.2045 6.3304 19.1428 6.77438 18.8939C7.21084 18.6392 7.73094 18.5695 8.2191 18.7001C8.70725 18.8307 9.12299 19.151 9.37392 19.5896C9.53845 19.8668 9.62686 20.1826 9.63021 20.5049C9.63021 21.5615 10.4867 22.418 11.5433 22.418H12.7973C13.8502 22.418 14.7053 21.567 14.7103 20.5141C14.7079 20.0059 14.9086 19.5179 15.2679 19.1586C15.6272 18.7993 16.1152 18.5986 16.6233 18.601C16.9449 18.6096 17.2594 18.6977 17.5387 18.8573C18.4515 19.3832 19.6177 19.0723 20.1474 18.1617L20.8064 17.0633C21.0615 16.6254 21.1315 16.1039 21.001 15.6143C20.8704 15.1246 20.55 14.7073 20.1108 14.4546C19.6715 14.2019 19.3511 13.7845 19.2206 13.2948C19.09 12.8052 19.16 12.2837 19.4151 11.8459C19.581 11.5562 19.8211 11.3161 20.1108 11.1502C21.0159 10.6208 21.3262 9.4614 20.8064 8.55068V8.54152Z" stroke="white" stroke-width="1.5" stroke-linecap="round" stroke-linejoin="round"/>
<path d="M12.1746 15.443C13.6304 15.443 14.8106 14.2628 14.8106 12.807C14.8106 11.3511 13.6304 10.171 12.1746 10.171C10.7188 10.171 9.53857 11.3511 9.53857 12.807C9.53857 14.2628 10.7188 15.443 12.1746 15.443Z" stroke="white" stroke-width="1.5" stroke-linecap="round" stroke-linejoin="round"/>
</svg>
